<svg id="Calque_1" data-name="Calque 1" xmlns="http://www.w3.org/2000/svg" viewBox="0 0 409.91 410.05"><defs><style>.cls-1{fill:#444;}</style></defs><title>car-door</title><path class="cls-1" d="M412.09,178.6q-73.63-73.4-147-147c-9.52-9.58-20.25-14.08-33.86-14-59.18.33-118.36.11-177.53.16-17.59,0-31.35,10.6-36,27.33a41.1,41.1,0,0,0-1.06,11.1q0,166.55,0,333.07c0,19.08,8.85,31.39,26.88,37.51.75.25,1.48.58,2.22.88h204c4.33-2.05,6.82-5.71,9-9.77,24.13-44.13,61-71.39,109.93-82.3,14.24-3.18,28.78-3.81,43.31-3.54,6.78.13,11.6-2.27,14.52-8.39V202C424.45,192.53,418.84,185.32,412.09,178.6ZM159.54,300.87c-1.93,4.51-6.14,6.93-12.32,7-11.33.11-22.66,0-34,0-10.93,0-21.86,0-32.79,0-9.16,0-13.62-3.29-14.74-11-.09-.57-.15-1.17-.19-1.79A14.92,14.92,0,0,1,66.56,291c1.93-4.51,6.14-6.93,12.32-7,11.33-.12,22.66,0,34,0,10.93,0,21.86,0,32.79,0,9.17,0,13.62,3.29,14.74,11.05.09.57.15,1.16.19,1.78A15,15,0,0,1,159.54,300.87Zm218-75.91c-1.48,5.62-4.83,8.65-10.58,9.37a42.73,42.73,0,0,1-5.19.15H83.51c-1.46,0-2.93,0-4.4,0-9.07-.2-13.67-4.82-13.78-14-.08-6.53,0-13.06,0-19.59V83.35c0-1.46,0-2.93,0-4.4.48-7.78,4.9-12.21,12.72-12.58,3.72-.18,7.46-.06,11.19-.06q66.18,0,132.35-.06a20,20,0,0,1,15.25,6.31Q304.42,140.42,372.25,208C377.09,212.84,379.35,218.19,377.57,225Z" transform="translate(-16.69 -17.55)"/></svg>